<svg width="157" height="81" viewBox="0 0 157 81" fill="none" xmlns="http://www.w3.org/2000/svg">
<path d="M59.7441 6.2002H58.7441C58.7441 6.75248 59.1919 7.2002 59.7441 7.2002V6.2002ZM83.7441 6.2002H84.7441C84.7441 5.64791 84.2964 5.2002 83.7441 5.2002V6.2002ZM83.7441 11.4004H82.7441C82.7441 11.9527 83.1919 12.4004 83.7441 12.4004V11.4004ZM107.744 11.4004H108.744C108.744 10.8481 108.296 10.4004 107.744 10.4004V11.4004ZM107.744 16.5996H106.744C106.744 17.1519 107.192 17.5996 107.744 17.5996V16.5996ZM131.744 16.5996H132.744C132.744 16.0473 132.296 15.5996 131.744 15.5996V16.5996ZM131.744 21.7998H130.744C130.744 22.3521 131.192 22.7998 131.744 22.7998V21.7998ZM155.744 21.7998H156.744C156.744 21.2475 156.296 20.7998 155.744 20.7998V21.7998ZM155.744 79.0762V80.0762C156.296 80.0762 156.744 79.6285 156.744 79.0762H155.744ZM97 79.0762H96C96 79.6285 96.4477 80.0762 97 80.0762V79.0762ZM97 73.876H98C98 73.3237 97.5523 72.876 97 72.876V73.876ZM73 73.876H72C72 74.4283 72.4477 74.876 73 74.876V73.876ZM73 68.6758H74C74 68.1235 73.5523 67.6758 73 67.6758V68.6758ZM49 68.6758H48C48 69.2281 48.4477 69.6758 49 69.6758V68.6758ZM49 63.4756H50C50 62.9233 49.5523 62.4756 49 62.4756V63.4756ZM25 63.4756H24C24 64.0279 24.4477 64.4756 25 64.4756V63.4756ZM25 58.2754H26C26 57.7231 25.5523 57.2754 25 57.2754V58.2754ZM1 58.2754H0C0 58.8277 0.447715 59.2754 1 59.2754L1 58.2754ZM1 1V0C0.447715 0 0 0.447715 0 1L1 1ZM59.7441 1H60.7441C60.7441 0.447715 60.2964 0 59.7441 0V1ZM60.7441 5.3335C60.7441 4.78121 60.2964 4.3335 59.7441 4.3335C59.1919 4.3335 58.7441 4.78121 58.7441 5.3335H59.7441H60.7441ZM58.7441 1.8667C58.7441 2.41898 59.1919 2.8667 59.7441 2.8667C60.2964 2.8667 60.7441 2.41898 60.7441 1.8667H59.7441H58.7441ZM58.7651 0C58.2128 0 57.7651 0.447715 57.7651 1C57.7651 1.55228 58.2128 2 58.7651 2V1V0ZM54.8488 2C55.4011 2 55.8488 1.55228 55.8488 1C55.8488 0.447715 55.4011 0 54.8488 0V1V2ZM52.8907 0C52.3384 0 51.8907 0.447715 51.8907 1C51.8907 1.55228 52.3384 2 52.8907 2V1V0ZM48.9744 2C49.5267 2 49.9744 1.55228 49.9744 1C49.9744 0.447715 49.5267 0 48.9744 0V1V2ZM47.0162 0C46.464 0 46.0162 0.447715 46.0162 1C46.0162 1.55228 46.464 2 47.0162 2V1V0ZM43.1 2C43.6523 2 44.1 1.55228 44.1 1C44.1 0.447715 43.6523 0 43.1 0V1V2ZM41.1418 0C40.5895 0 40.1418 0.447715 40.1418 1C40.1418 1.55228 40.5895 2 41.1418 2V1V0ZM37.2256 2C37.7778 2 38.2256 1.55228 38.2256 1C38.2256 0.447715 37.7778 0 37.2256 0V1V2ZM35.2674 0C34.7151 0 34.2674 0.447715 34.2674 1C34.2674 1.55228 34.7151 2 35.2674 2V1V0ZM31.3511 2C31.9034 2 32.3511 1.55228 32.3511 1C32.3511 0.447715 31.9034 0 31.3511 0V1V2ZM29.393 0C28.8407 0 28.393 0.447715 28.393 1C28.393 1.55228 28.8407 2 29.393 2V1V0ZM25.4767 2C26.029 2 26.4767 1.55228 26.4767 1C26.4767 0.447715 26.029 0 25.4767 0V1V2ZM23.5186 0C22.9663 0 22.5186 0.447715 22.5186 1C22.5186 1.55228 22.9663 2 23.5186 2V1V0ZM19.6023 2C20.1546 2 20.6023 1.55228 20.6023 1C20.6023 0.447715 20.1546 0 19.6023 0V1V2ZM17.6442 0C17.0919 0 16.6442 0.447715 16.6442 1C16.6442 1.55228 17.0919 2 17.6442 2V1V0ZM13.7279 2C14.2802 2 14.7279 1.55228 14.7279 1C14.7279 0.447715 14.2802 0 13.7279 0V1V2ZM11.7698 0C11.2175 0 10.7698 0.447715 10.7698 1C10.7698 1.55228 11.2175 2 11.7698 2V1V0ZM7.85349 2C8.40578 2 8.85349 1.55228 8.85349 1C8.85349 0.447715 8.40578 0 7.85349 0V1V2ZM5.89535 0C5.34307 0 4.89535 0.447715 4.89535 1C4.89535 1.55228 5.34307 2 5.89535 2V1V0ZM1.97908 2C2.53136 2 2.97908 1.55228 2.97908 1C2.97908 0.447715 2.53136 0 1.97908 0V1V2ZM0 1.95459C0 2.50687 0.447715 2.95459 1 2.95459C1.55228 2.95459 2 2.50687 2 1.95459H1H0ZM2 5.77295C2 5.22066 1.55228 4.77295 1 4.77295C0.447715 4.77295 0 5.22066 0 5.77295H1H2ZM0 7.68213C0 8.23441 0.447715 8.68213 1 8.68213C1.55228 8.68213 2 8.23441 2 7.68213H1H0ZM2 11.5005C2 10.9482 1.55228 10.5005 1 10.5005C0.447715 10.5005 0 10.9482 0 11.5005H1H2ZM0 13.4097C0 13.962 0.447715 14.4097 1 14.4097C1.55228 14.4097 2 13.962 2 13.4097H1H0ZM2 17.228C2 16.6757 1.55228 16.228 1 16.228C0.447715 16.228 0 16.6757 0 17.228H1H2ZM0 19.1372C0 19.6895 0.447715 20.1372 1 20.1372C1.55228 20.1372 2 19.6895 2 19.1372H1H0ZM2 22.9556C2 22.4033 1.55228 21.9556 1 21.9556C0.447715 21.9556 0 22.4033 0 22.9556H1H2ZM0 24.8647C0 25.417 0.447715 25.8647 1 25.8647C1.55228 25.8647 2 25.417 2 24.8647H1H0ZM2 28.6831C2 28.1308 1.55228 27.6831 1 27.6831C0.447715 27.6831 0 28.1308 0 28.6831H1H2ZM0 30.5923C0 31.1446 0.447715 31.5923 1 31.5923C1.55228 31.5923 2 31.1446 2 30.5923H1H0ZM2 34.4106C2 33.8584 1.55228 33.4106 1 33.4106C0.447715 33.4106 0 33.8584 0 34.4106H1H2ZM0 36.3198C0 36.8721 0.447715 37.3198 1 37.3198C1.55228 37.3198 2 36.8721 2 36.3198H1H0ZM2 40.1382C2 39.5859 1.55228 39.1382 1 39.1382C0.447715 39.1382 0 39.5859 0 40.1382H1H2ZM0 42.0474C0 42.5996 0.447715 43.0474 1 43.0474C1.55228 43.0474 2 42.5996 2 42.0474H1H0ZM2 45.8657C2 45.3134 1.55228 44.8657 1 44.8657C0.447715 44.8657 0 45.3134 0 45.8657H1H2ZM0 47.7749C0 48.3272 0.447715 48.7749 1 48.7749C1.55228 48.7749 2 48.3272 2 47.7749H1H0ZM2 51.5933C2 51.041 1.55228 50.5933 1 50.5933C0.447715 50.5933 0 51.041 0 51.5933H1H2ZM0 53.5024C0 54.0547 0.447715 54.5024 1 54.5024C1.55228 54.5024 2 54.0547 2 53.5024H1H0ZM2 57.3208C2 56.7685 1.55228 56.3208 1 56.3208C0.447715 56.3208 0 56.7685 0 57.3208H1H2ZM2 59.2754C2.55228 59.2754 3 58.8277 3 58.2754C3 57.7231 2.55228 57.2754 2 57.2754V58.2754V59.2754ZM6 57.2754C5.44772 57.2754 5 57.7231 5 58.2754C5 58.8277 5.44772 59.2754 6 59.2754V58.2754V57.2754ZM8 59.2754C8.55228 59.2754 9 58.8277 9 58.2754C9 57.7231 8.55228 57.2754 8 57.2754V58.2754V59.2754ZM12 57.2754C11.4477 57.2754 11 57.7231 11 58.2754C11 58.8277 11.4477 59.2754 12 59.2754V58.2754V57.2754ZM14 59.2754C14.5523 59.2754 15 58.8277 15 58.2754C15 57.7231 14.5523 57.2754 14 57.2754V58.2754V59.2754ZM18 57.2754C17.4477 57.2754 17 57.7231 17 58.2754C17 58.8277 17.4477 59.2754 18 59.2754V58.2754V57.2754ZM20 59.2754C20.5523 59.2754 21 58.8277 21 58.2754C21 57.7231 20.5523 57.2754 20 57.2754V58.2754V59.2754ZM24 57.2754C23.4477 57.2754 23 57.7231 23 58.2754C23 58.8277 23.4477 59.2754 24 59.2754V58.2754V57.2754ZM24 59.1421C24 59.6944 24.4477 60.1421 25 60.1421C25.5523 60.1421 26 59.6944 26 59.1421H25H24ZM26 62.6089C26 62.0566 25.5523 61.6089 25 61.6089C24.4477 61.6089 24 62.0566 24 62.6089H25H26ZM26 64.4756C26.5523 64.4756 27 64.0279 27 63.4756C27 62.9233 26.5523 62.4756 26 62.4756V63.4756V64.4756ZM30 62.4756C29.4477 62.4756 29 62.9233 29 63.4756C29 64.0279 29.4477 64.4756 30 64.4756V63.4756V62.4756ZM32 64.4756C32.5523 64.4756 33 64.0279 33 63.4756C33 62.9233 32.5523 62.4756 32 62.4756V63.4756V64.4756ZM36 62.4756C35.4477 62.4756 35 62.9233 35 63.4756C35 64.0279 35.4477 64.4756 36 64.4756V63.4756V62.4756ZM38 64.4756C38.5523 64.4756 39 64.0279 39 63.4756C39 62.9233 38.5523 62.4756 38 62.4756V63.4756V64.4756ZM42 62.4756C41.4477 62.4756 41 62.9233 41 63.4756C41 64.0279 41.4477 64.4756 42 64.4756V63.4756V62.4756ZM44 64.4756C44.5523 64.4756 45 64.0279 45 63.4756C45 62.9233 44.5523 62.4756 44 62.4756V63.4756V64.4756ZM48 62.4756C47.4477 62.4756 47 62.9233 47 63.4756C47 64.0279 47.4477 64.4756 48 64.4756V63.4756V62.4756ZM48 64.3423C48 64.8946 48.4477 65.3423 49 65.3423C49.5523 65.3423 50 64.8946 50 64.3423H49H48ZM50 67.8091C50 67.2568 49.5523 66.8091 49 66.8091C48.4477 66.8091 48 67.2568 48 67.8091H49H50ZM50 69.6758C50.5523 69.6758 51 69.2281 51 68.6758C51 68.1235 50.5523 67.6758 50 67.6758V68.6758V69.6758ZM54 67.6758C53.4477 67.6758 53 68.1235 53 68.6758C53 69.2281 53.4477 69.6758 54 69.6758V68.6758V67.6758ZM56 69.6758C56.5523 69.6758 57 69.2281 57 68.6758C57 68.1235 56.5523 67.6758 56 67.6758V68.6758V69.6758ZM60 67.6758C59.4477 67.6758 59 68.1235 59 68.6758C59 69.2281 59.4477 69.6758 60 69.6758V68.6758V67.6758ZM62 69.6758C62.5523 69.6758 63 69.2281 63 68.6758C63 68.1235 62.5523 67.6758 62 67.6758V68.6758V69.6758ZM66 67.6758C65.4477 67.6758 65 68.1235 65 68.6758C65 69.2281 65.4477 69.6758 66 69.6758V68.6758V67.6758ZM68 69.6758C68.5523 69.6758 69 69.2281 69 68.6758C69 68.1235 68.5523 67.6758 68 67.6758V68.6758V69.6758ZM72 67.6758C71.4477 67.6758 71 68.1235 71 68.6758C71 69.2281 71.4477 69.6758 72 69.6758V68.6758V67.6758ZM72 69.5425C72 70.0948 72.4477 70.5425 73 70.5425C73.5523 70.5425 74 70.0948 74 69.5425H73H72ZM74 73.0093C74 72.457 73.5523 72.0093 73 72.0093C72.4477 72.0093 72 72.457 72 73.0093H73H74ZM74 74.876C74.5523 74.876 75 74.4283 75 73.876C75 73.3237 74.5523 72.876 74 72.876V73.876V74.876ZM78 72.876C77.4477 72.876 77 73.3237 77 73.876C77 74.4283 77.4477 74.876 78 74.876V73.876V72.876ZM80 74.876C80.5523 74.876 81 74.4283 81 73.876C81 73.3237 80.5523 72.876 80 72.876V73.876V74.876ZM84 72.876C83.4477 72.876 83 73.3237 83 73.876C83 74.4283 83.4477 74.876 84 74.876V73.876V72.876ZM86 74.876C86.5523 74.876 87 74.4283 87 73.876C87 73.3237 86.5523 72.876 86 72.876V73.876V74.876ZM90 72.876C89.4477 72.876 89 73.3237 89 73.876C89 74.4283 89.4477 74.876 90 74.876V73.876V72.876ZM92 74.876C92.5523 74.876 93 74.4283 93 73.876C93 73.3237 92.5523 72.876 92 72.876V73.876V74.876ZM96 72.876C95.4477 72.876 95 73.3237 95 73.876C95 74.4283 95.4477 74.876 96 74.876V73.876V72.876ZM96 74.7427C96 75.295 96.4477 75.7427 97 75.7427C97.5523 75.7427 98 75.295 98 74.7427H97H96ZM98 78.2095C98 77.6572 97.5523 77.2095 97 77.2095C96.4477 77.2095 96 77.6572 96 78.2095H97H98ZM97.9791 80.0762C98.5314 80.0762 98.9791 79.6285 98.9791 79.0762C98.9791 78.5239 98.5314 78.0762 97.9791 78.0762V79.0762V80.0762ZM101.895 78.0762C101.343 78.0762 100.895 78.5239 100.895 79.0762C100.895 79.6285 101.343 80.0762 101.895 80.0762V79.0762V78.0762ZM103.853 80.0762C104.406 80.0762 104.853 79.6285 104.853 79.0762C104.853 78.5239 104.406 78.0762 103.853 78.0762V79.0762V80.0762ZM107.77 78.0762C107.217 78.0762 106.77 78.5239 106.77 79.0762C106.77 79.6285 107.217 80.0762 107.77 80.0762V79.0762V78.0762ZM109.728 80.0762C110.28 80.0762 110.728 79.6285 110.728 79.0762C110.728 78.5239 110.28 78.0762 109.728 78.0762V79.0762V80.0762ZM113.644 78.0762C113.092 78.0762 112.644 78.5239 112.644 79.0762C112.644 79.6285 113.092 80.0762 113.644 80.0762V79.0762V78.0762ZM115.602 80.0762C116.155 80.0762 116.602 79.6285 116.602 79.0762C116.602 78.5239 116.155 78.0762 115.602 78.0762V79.0762V80.0762ZM119.519 78.0762C118.966 78.0762 118.519 78.5239 118.519 79.0762C118.519 79.6285 118.966 80.0762 119.519 80.0762V79.0762V78.0762ZM121.477 80.0762C122.029 80.0762 122.477 79.6285 122.477 79.0762C122.477 78.5239 122.029 78.0762 121.477 78.0762V79.0762V80.0762ZM125.393 78.0762C124.841 78.0762 124.393 78.5239 124.393 79.0762C124.393 79.6285 124.841 80.0762 125.393 80.0762V79.0762V78.0762ZM127.351 80.0762C127.903 80.0762 128.351 79.6285 128.351 79.0762C128.351 78.5239 127.903 78.0762 127.351 78.0762V79.0762V80.0762ZM131.267 78.0762C130.715 78.0762 130.267 78.5239 130.267 79.0762C130.267 79.6285 130.715 80.0762 131.267 80.0762V79.0762V78.0762ZM133.226 80.0762C133.778 80.0762 134.226 79.6285 134.226 79.0762C134.226 78.5239 133.778 78.0762 133.226 78.0762V79.0762V80.0762ZM137.142 78.0762C136.59 78.0762 136.142 78.5239 136.142 79.0762C136.142 79.6285 136.59 80.0762 137.142 80.0762V79.0762V78.0762ZM139.1 80.0762C139.652 80.0762 140.1 79.6285 140.1 79.0762C140.1 78.5239 139.652 78.0762 139.1 78.0762V79.0762V80.0762ZM143.016 78.0762C142.464 78.0762 142.016 78.5239 142.016 79.0762C142.016 79.6285 142.464 80.0762 143.016 80.0762V79.0762V78.0762ZM144.974 80.0762C145.527 80.0762 145.974 79.6285 145.974 79.0762C145.974 78.5239 145.527 78.0762 144.974 78.0762V79.0762V80.0762ZM148.891 78.0762C148.338 78.0762 147.891 78.5239 147.891 79.0762C147.891 79.6285 148.338 80.0762 148.891 80.0762V79.0762V78.0762ZM150.849 80.0762C151.401 80.0762 151.849 79.6285 151.849 79.0762C151.849 78.5239 151.401 78.0762 150.849 78.0762V79.0762V80.0762ZM154.765 78.0762C154.213 78.0762 153.765 78.5239 153.765 79.0762C153.765 79.6285 154.213 80.0762 154.765 80.0762V79.0762V78.0762ZM156.744 78.1216C156.744 77.5693 156.296 77.1216 155.744 77.1216C155.192 77.1216 154.744 77.5693 154.744 78.1216H155.744H156.744ZM154.744 74.3031C154.744 74.8554 155.192 75.3031 155.744 75.3031C156.296 75.3031 156.744 74.8554 156.744 74.3031H155.744H154.744ZM156.744 72.3939C156.744 71.8416 156.296 71.3939 155.744 71.3939C155.192 71.3939 154.744 71.8416 154.744 72.3939H155.744H156.744ZM154.744 68.5755C154.744 69.1278 155.192 69.5755 155.744 69.5755C156.296 69.5755 156.744 69.1278 156.744 68.5755H155.744H154.744ZM156.744 66.6663C156.744 66.114 156.296 65.6663 155.744 65.6663C155.192 65.6663 154.744 66.114 154.744 66.6663H155.744H156.744ZM154.744 62.8479C154.744 63.4002 155.192 63.8479 155.744 63.8479C156.296 63.8479 156.744 63.4002 156.744 62.8479H155.744H154.744ZM156.744 60.9387C156.744 60.3864 156.296 59.9387 155.744 59.9387C155.192 59.9387 154.744 60.3864 154.744 60.9387H155.744H156.744ZM154.744 57.1202C154.744 57.6725 155.192 58.1202 155.744 58.1202C156.296 58.1202 156.744 57.6725 156.744 57.1202H155.744H154.744ZM156.744 55.211C156.744 54.6587 156.296 54.211 155.744 54.211C155.192 54.211 154.744 54.6587 154.744 55.211H155.744H156.744ZM154.744 51.3926C154.744 51.9449 155.192 52.3926 155.744 52.3926C156.296 52.3926 156.744 51.9449 156.744 51.3926H155.744H154.744ZM156.744 49.4834C156.744 48.9311 156.296 48.4834 155.744 48.4834C155.192 48.4834 154.744 48.9311 154.744 49.4834H155.744H156.744ZM154.744 45.665C154.744 46.2172 155.192 46.665 155.744 46.665C156.296 46.665 156.744 46.2172 156.744 45.665H155.744H154.744ZM156.744 43.7557C156.744 43.2035 156.296 42.7557 155.744 42.7557C155.192 42.7557 154.744 43.2035 154.744 43.7557H155.744H156.744ZM154.744 39.9373C154.744 40.4896 155.192 40.9373 155.744 40.9373C156.296 40.9373 156.744 40.4896 156.744 39.9373H155.744H154.744ZM156.744 38.0281C156.744 37.4758 156.296 37.0281 155.744 37.0281C155.192 37.0281 154.744 37.4758 154.744 38.0281H155.744H156.744ZM154.744 34.2097C154.744 34.762 155.192 35.2097 155.744 35.2097C156.296 35.2097 156.744 34.762 156.744 34.2097H155.744H154.744ZM156.744 32.3005C156.744 31.7482 156.296 31.3005 155.744 31.3005C155.192 31.3005 154.744 31.7482 154.744 32.3005H155.744H156.744ZM154.744 28.482C154.744 29.0343 155.192 29.482 155.744 29.482C156.296 29.482 156.744 29.0343 156.744 28.482H155.744H154.744ZM156.744 26.5728C156.744 26.0205 156.296 25.5728 155.744 25.5728C155.192 25.5728 154.744 26.0205 154.744 26.5728H155.744H156.744ZM154.744 22.7544C154.744 23.3067 155.192 23.7544 155.744 23.7544C156.296 23.7544 156.744 23.3067 156.744 22.7544H155.744H154.744ZM154.744 20.7998C154.192 20.7998 153.744 21.2475 153.744 21.7998C153.744 22.3521 154.192 22.7998 154.744 22.7998V21.7998V20.7998ZM150.744 22.7998C151.296 22.7998 151.744 22.3521 151.744 21.7998C151.744 21.2475 151.296 20.7998 150.744 20.7998V21.7998V22.7998ZM148.744 20.7998C148.192 20.7998 147.744 21.2475 147.744 21.7998C147.744 22.3521 148.192 22.7998 148.744 22.7998V21.7998V20.7998ZM144.744 22.7998C145.296 22.7998 145.744 22.3521 145.744 21.7998C145.744 21.2475 145.296 20.7998 144.744 20.7998V21.7998V22.7998ZM142.744 20.7998C142.192 20.7998 141.744 21.2475 141.744 21.7998C141.744 22.3521 142.192 22.7998 142.744 22.7998V21.7998V20.7998ZM138.744 22.7998C139.296 22.7998 139.744 22.3521 139.744 21.7998C139.744 21.2475 139.296 20.7998 138.744 20.7998V21.7998V22.7998ZM136.744 20.7998C136.192 20.7998 135.744 21.2475 135.744 21.7998C135.744 22.3521 136.192 22.7998 136.744 22.7998V21.7998V20.7998ZM132.744 22.7998C133.296 22.7998 133.744 22.3521 133.744 21.7998C133.744 21.2475 133.296 20.7998 132.744 20.7998V21.7998V22.7998ZM132.744 20.9331C132.744 20.3808 132.296 19.9331 131.744 19.9331C131.192 19.9331 130.744 20.3808 130.744 20.9331H131.744H132.744ZM130.744 17.4663C130.744 18.0186 131.192 18.4663 131.744 18.4663C132.296 18.4663 132.744 18.0186 132.744 17.4663H131.744H130.744ZM130.744 15.5996C130.192 15.5996 129.744 16.0473 129.744 16.5996C129.744 17.1519 130.192 17.5996 130.744 17.5996V16.5996V15.5996ZM126.744 17.5996C127.296 17.5996 127.744 17.1519 127.744 16.5996C127.744 16.0473 127.296 15.5996 126.744 15.5996V16.5996V17.5996ZM124.744 15.5996C124.192 15.5996 123.744 16.0473 123.744 16.5996C123.744 17.1519 124.192 17.5996 124.744 17.5996V16.5996V15.5996ZM120.744 17.5996C121.296 17.5996 121.744 17.1519 121.744 16.5996C121.744 16.0473 121.296 15.5996 120.744 15.5996V16.5996V17.5996ZM118.744 15.5996C118.192 15.5996 117.744 16.0473 117.744 16.5996C117.744 17.1519 118.192 17.5996 118.744 17.5996V16.5996V15.5996ZM114.744 17.5996C115.296 17.5996 115.744 17.1519 115.744 16.5996C115.744 16.0473 115.296 15.5996 114.744 15.5996V16.5996V17.5996ZM112.744 15.5996C112.192 15.5996 111.744 16.0473 111.744 16.5996C111.744 17.1519 112.192 17.5996 112.744 17.5996V16.5996V15.5996ZM108.744 17.5996C109.296 17.5996 109.744 17.1519 109.744 16.5996C109.744 16.0473 109.296 15.5996 108.744 15.5996V16.5996V17.5996ZM108.744 15.7331C108.744 15.1808 108.296 14.7331 107.744 14.7331C107.192 14.7331 106.744 15.1808 106.744 15.7331H107.744H108.744ZM106.744 12.2669C106.744 12.8192 107.192 13.2669 107.744 13.2669C108.296 13.2669 108.744 12.8192 108.744 12.2669H107.744H106.744ZM106.744 10.4004C106.192 10.4004 105.744 10.8481 105.744 11.4004C105.744 11.9527 106.192 12.4004 106.744 12.4004V11.4004V10.4004ZM102.744 12.4004C103.296 12.4004 103.744 11.9527 103.744 11.4004C103.744 10.8481 103.296 10.4004 102.744 10.4004V11.4004V12.4004ZM100.744 10.4004C100.192 10.4004 99.7441 10.8481 99.7441 11.4004C99.7441 11.9527 100.192 12.4004 100.744 12.4004V11.4004V10.4004ZM96.7441 12.4004C97.2964 12.4004 97.7441 11.9527 97.7441 11.4004C97.7441 10.8481 97.2964 10.4004 96.7441 10.4004V11.4004V12.4004ZM94.7441 10.4004C94.1919 10.4004 93.7441 10.8481 93.7441 11.4004C93.7441 11.9527 94.1919 12.4004 94.7441 12.4004V11.4004V10.4004ZM90.7441 12.4004C91.2964 12.4004 91.7441 11.9527 91.7441 11.4004C91.7441 10.8481 91.2964 10.4004 90.7441 10.4004V11.4004V12.4004ZM88.7441 10.4004C88.1919 10.4004 87.7441 10.8481 87.7441 11.4004C87.7441 11.9527 88.1919 12.4004 88.7441 12.4004V11.4004V10.4004ZM84.7441 12.4004C85.2964 12.4004 85.7441 11.9527 85.7441 11.4004C85.7441 10.8481 85.2964 10.4004 84.7441 10.4004V11.4004V12.4004ZM84.7441 10.5337C84.7441 9.98141 84.2964 9.53369 83.7441 9.53369C83.1919 9.53369 82.7441 9.98141 82.7441 10.5337H83.7441H84.7441ZM82.7441 7.06689C82.7441 7.61918 83.1919 8.06689 83.7441 8.06689C84.2964 8.06689 84.7441 7.61918 84.7441 7.06689H83.7441H82.7441ZM82.7441 5.2002C82.1919 5.2002 81.7441 5.64791 81.7441 6.2002C81.7441 6.75248 82.1919 7.2002 82.7441 7.2002V6.2002V5.2002ZM78.7441 7.2002C79.2964 7.2002 79.7441 6.75248 79.7441 6.2002C79.7441 5.64791 79.2964 5.2002 78.7441 5.2002V6.2002V7.2002ZM76.7441 5.2002C76.1919 5.2002 75.7441 5.64791 75.7441 6.2002C75.7441 6.75248 76.1919 7.2002 76.7441 7.2002V6.2002V5.2002ZM72.7441 7.2002C73.2964 7.2002 73.7441 6.75248 73.7441 6.2002C73.7441 5.64791 73.2964 5.2002 72.7441 5.2002V6.2002V7.2002ZM70.7441 5.2002C70.1919 5.2002 69.7441 5.64791 69.7441 6.2002C69.7441 6.75248 70.1919 7.2002 70.7441 7.2002V6.2002V5.2002ZM66.7441 7.2002C67.2964 7.2002 67.7441 6.75248 67.7441 6.2002C67.7441 5.64791 67.2964 5.2002 66.7441 5.2002V6.2002V7.2002ZM64.7441 5.2002C64.1919 5.2002 63.7441 5.64791 63.7441 6.2002C63.7441 6.75248 64.1919 7.2002 64.7441 7.2002V6.2002V5.2002ZM60.7441 7.2002C61.2964 7.2002 61.7441 6.75248 61.7441 6.2002C61.7441 5.64791 61.2964 5.2002 60.7441 5.2002V6.2002V7.2002ZM59.7441 6.2002H60.7441V5.3335H59.7441H58.7441V6.2002H59.7441ZM59.7441 1.8667H60.7441V1H59.7441H58.7441V1.8667H59.7441ZM59.7441 1V0H58.7651V1V2H59.7441V1ZM54.8488 1V0H52.8907V1V2H54.8488V1ZM48.9744 1V0H47.0162V1V2H48.9744V1ZM43.1 1V0H41.1418V1V2H43.1V1ZM37.2256 1V0H35.2674V1V2H37.2256V1ZM31.3511 1V0H29.393V1V2H31.3511V1ZM25.4767 1V0H23.5186V1V2H25.4767V1ZM19.6023 1V0H17.6442V1V2H19.6023V1ZM13.7279 1V0H11.7698V1V2H13.7279V1ZM7.85349 1V0H5.89535V1V2H7.85349V1ZM1.97908 1V0H1V1V2H1.97908V1ZM1 1H0V1.95459H1H2V1H1ZM1 5.77295H0V7.68213H1H2V5.77295H1ZM1 11.5005H0V13.4097H1H2V11.5005H1ZM1 17.228H0V19.1372H1H2V17.228H1ZM1 22.9556H0V24.8647H1H2V22.9556H1ZM1 28.6831H0V30.5923H1H2V28.6831H1ZM1 34.4106H0V36.3198H1H2V34.4106H1ZM1 40.1382H0V42.0474H1H2V40.1382H1ZM1 45.8657H0V47.7749H1H2V45.8657H1ZM1 51.5933H0V53.5024H1H2V51.5933H1ZM1 57.3208H0V58.2754H1H2V57.3208H1ZM1 58.2754V59.2754H2V58.2754V57.2754H1V58.2754ZM6 58.2754V59.2754H8V58.2754V57.2754H6V58.2754ZM12 58.2754V59.2754H14V58.2754V57.2754H12V58.2754ZM18 58.2754V59.2754H20V58.2754V57.2754H18V58.2754ZM24 58.2754V59.2754H25V58.2754V57.2754H24V58.2754ZM25 58.2754H24V59.1421H25H26V58.2754H25ZM25 62.6089H24V63.4756H25H26V62.6089H25ZM25 63.4756V64.4756H26V63.4756V62.4756H25V63.4756ZM30 63.4756V64.4756H32V63.4756V62.4756H30V63.4756ZM36 63.4756V64.4756H38V63.4756V62.4756H36V63.4756ZM42 63.4756V64.4756H44V63.4756V62.4756H42V63.4756ZM48 63.4756V64.4756H49V63.4756V62.4756H48V63.4756ZM49 63.4756H48V64.3423H49H50V63.4756H49ZM49 67.8091H48V68.6758H49H50V67.8091H49ZM49 68.6758V69.6758H50V68.6758V67.6758H49V68.6758ZM54 68.6758V69.6758H56V68.6758V67.6758H54V68.6758ZM60 68.6758V69.6758H62V68.6758V67.6758H60V68.6758ZM66 68.6758V69.6758H68V68.6758V67.6758H66V68.6758ZM72 68.6758V69.6758H73V68.6758V67.6758H72V68.6758ZM73 68.6758H72V69.5425H73H74V68.6758H73ZM73 73.0093H72V73.876H73H74V73.0093H73ZM73 73.876V74.876H74V73.876V72.876H73V73.876ZM78 73.876V74.876H80V73.876V72.876H78V73.876ZM84 73.876V74.876H86V73.876V72.876H84V73.876ZM90 73.876V74.876H92V73.876V72.876H90V73.876ZM96 73.876V74.876H97V73.876V72.876H96V73.876ZM97 73.876H96V74.7427H97H98V73.876H97ZM97 78.2095H96V79.0762H97H98V78.2095H97ZM97 79.0762V80.0762H97.9791V79.0762V78.0762H97V79.0762ZM101.895 79.0762V80.0762H103.853V79.0762V78.0762H101.895V79.0762ZM107.77 79.0762V80.0762H109.728V79.0762V78.0762H107.77V79.0762ZM113.644 79.0762V80.0762H115.602V79.0762V78.0762H113.644V79.0762ZM119.519 79.0762V80.0762H121.477V79.0762V78.0762H119.519V79.0762ZM125.393 79.0762V80.0762H127.351V79.0762V78.0762H125.393V79.0762ZM131.267 79.0762V80.0762H133.226V79.0762V78.0762H131.267V79.0762ZM137.142 79.0762V80.0762H139.1V79.0762V78.0762H137.142V79.0762ZM143.016 79.0762V80.0762H144.974V79.0762V78.0762H143.016V79.0762ZM148.891 79.0762V80.0762H150.849V79.0762V78.0762H148.891V79.0762ZM154.765 79.0762V80.0762H155.744V79.0762V78.0762H154.765V79.0762ZM155.744 79.0762H156.744V78.1216H155.744H154.744V79.0762H155.744ZM155.744 74.3031H156.744V72.3939H155.744H154.744V74.3031H155.744ZM155.744 68.5755H156.744V66.6663H155.744H154.744V68.5755H155.744ZM155.744 62.8479H156.744V60.9387H155.744H154.744V62.8479H155.744ZM155.744 57.1202H156.744V55.211H155.744H154.744V57.1202H155.744ZM155.744 51.3926H156.744V49.4834H155.744H154.744V51.3926H155.744ZM155.744 45.665H156.744V43.7557H155.744H154.744V45.665H155.744ZM155.744 39.9373H156.744V38.0281H155.744H154.744V39.9373H155.744ZM155.744 34.2097H156.744V32.3005H155.744H154.744V34.2097H155.744ZM155.744 28.482H156.744V26.5728H155.744H154.744V28.482H155.744ZM155.744 22.7544H156.744V21.7998H155.744H154.744V22.7544H155.744ZM155.744 21.7998V20.7998H154.744V21.7998V22.7998H155.744V21.7998ZM150.744 21.7998V20.7998H148.744V21.7998V22.7998H150.744V21.7998ZM144.744 21.7998V20.7998H142.744V21.7998V22.7998H144.744V21.7998ZM138.744 21.7998V20.7998H136.744V21.7998V22.7998H138.744V21.7998ZM132.744 21.7998V20.7998H131.744V21.7998V22.7998H132.744V21.7998ZM131.744 21.7998H132.744V20.9331H131.744H130.744V21.7998H131.744ZM131.744 17.4663H132.744V16.5996H131.744H130.744V17.4663H131.744ZM131.744 16.5996V15.5996H130.744V16.5996V17.5996H131.744V16.5996ZM126.744 16.5996V15.5996H124.744V16.5996V17.5996H126.744V16.5996ZM120.744 16.5996V15.5996H118.744V16.5996V17.5996H120.744V16.5996ZM114.744 16.5996V15.5996H112.744V16.5996V17.5996H114.744V16.5996ZM108.744 16.5996V15.5996H107.744V16.5996V17.5996H108.744V16.5996ZM107.744 16.5996H108.744V15.7331H107.744H106.744V16.5996H107.744ZM107.744 12.2669H108.744V11.4004H107.744H106.744V12.2669H107.744ZM107.744 11.4004V10.4004H106.744V11.4004V12.4004H107.744V11.4004ZM102.744 11.4004V10.4004H100.744V11.4004V12.4004H102.744V11.4004ZM96.7441 11.4004V10.4004H94.7441V11.4004V12.4004H96.7441V11.4004ZM90.7441 11.4004V10.4004H88.7441V11.4004V12.4004H90.7441V11.4004ZM84.7441 11.4004V10.4004H83.7441V11.4004V12.4004H84.7441V11.4004ZM83.7441 11.4004H84.7441V10.5337H83.7441H82.7441V11.4004H83.7441ZM83.7441 7.06689H84.7441V6.2002H83.7441H82.7441V7.06689H83.7441ZM83.7441 6.2002V5.2002H82.7441V6.2002V7.2002H83.7441V6.2002ZM78.7441 6.2002V5.2002H76.7441V6.2002V7.2002H78.7441V6.2002ZM72.7441 6.2002V5.2002H70.7441V6.2002V7.2002H72.7441V6.2002ZM66.7441 6.2002V5.2002H64.7441V6.2002V7.2002H66.7441V6.2002ZM60.7441 6.2002V5.2002H59.7441V6.2002V7.2002H60.7441V6.2002Z" fill="#949494"/>
</svg>
