<svg width="93" height="86" viewBox="0 0 93 86" fill="none" xmlns="http://www.w3.org/2000/svg">
<path d="M2 83.5001C1.6 83.5001 1.5 83.1668 1.5 83.0001L1 36L5 29V27C3.4 27 2.66667 26 2.5 25.5V15H11.5V25.5C11.5 25.6667 11.4 26.1 11 26.5C10.6 26.9 9.83333 27 9.5 27V29L13 36L17 29V27C15.4 27 14.6667 26 14.5 25.5V15H23.5V25.5C23.5 25.6667 23.4 26.1 23 26.5C22.6 26.9 21.8333 27 21.5 27V29L25.5 36L28.5 29V27C27.6667 27 26 26.7 26 25.5V15H35.5V23.5C35.6667 23.3333 36 22.7 36 21.5V18.5L37.5 1H51L52 14.5H55V25L56 36L60 29V27C58.4 27 57.6667 26 57.5 25.5V15H66.5V25.5C66.5 25.6667 66.4 26.1 66 26.5C65.6 26.9 64.8333 27 64.5 27V29L68 35.5L71.5 29.0001V27.0001C69.9 27.0001 69.1667 26.0001 69 25.5001V15.0001H78V25.5001C78 25.6668 77.9 26.1001 77.5 26.5001C77.1 26.9001 76.3333 27.0001 76 27.0001V29.0001L79.5 36.0001L83.5 29.0001V27.0001C81.9 27.0001 81.1667 26.0001 81 25.5001V15.0001H90V25.5001C90 25.6668 89.9 26.1001 89.5 26.5001C89.1 26.9001 88.3333 27.0001 88 27.0001V29.0001L92 36.0001L91.7065 82.5064C91.703 83.0562 91.2575 83.5001 90.7077 83.5001H59C58.5 83.5001 58 84.0001 57.5 84.5001C57.1 84.9001 56 85.0001 55.5 85.0001H32.5C31.3 85.0001 30.6667 84.6668 30.5 84.5001C30.1667 84.1668 29.4 83.5001 29 83.5001H2Z" stroke="#949494" stroke-width="2" stroke-linecap="round" stroke-linejoin="round" stroke-dasharray="2 4"/>
</svg>
