<svg width="60" height="60" viewBox="0 0 60 60" fill="none" xmlns="http://www.w3.org/2000/svg">
<rect x="8.10156" y="14.4395" width="4.49414" height="55.7551" transform="rotate(-43.3242 8.10156 14.4395)" fill="#F4F4F4"/>
<path d="M22.4482 32.6348C21.6708 33.991 21.25 35.5444 21.25 37.1426C21.25 39.5104 22.1717 41.7817 23.8125 43.4561C25.4534 45.1305 27.6794 46.0713 30 46.0713C31.4527 46.0713 32.8679 45.7021 34.126 45.0156L42.6543 54.0576C41.4523 54.6695 40.1185 55 38.75 55H21.25C18.9294 55 16.7034 54.0592 15.0625 52.3848C13.4217 50.7104 12.5 48.4392 12.5 46.0713V22.0859L22.4482 32.6348ZM38.75 5C41.0706 5 43.2966 5.9408 44.9375 7.61523C46.5783 9.28965 47.5 11.5608 47.5 13.9287V46.0713C47.5 46.2674 47.491 46.4628 47.4785 46.6572L38.7432 37.3955C38.7455 37.3114 38.75 37.227 38.75 37.1426C38.7499 34.7747 37.8284 32.5035 36.1875 30.8291C34.5666 29.1751 32.3749 28.2385 30.085 28.2158L13.2354 10.3496C13.6685 9.33962 14.2838 8.4099 15.0625 7.61523C16.7034 5.9408 18.9294 5 21.25 5H38.75ZM31.5322 42.2656C31.0399 42.419 30.5242 42.5 30 42.5C28.6076 42.5 27.2726 41.9353 26.2881 40.9307C25.3035 39.926 24.75 38.5634 24.75 37.1426C24.75 36.538 24.851 35.9442 25.042 35.3838L31.5322 42.2656ZM30 15.7139C29.0717 15.7139 28.1818 16.091 27.5254 16.7607C26.8691 17.4305 26.5 18.339 26.5 19.2861C26.5001 20.2332 26.8691 21.1418 27.5254 21.8115C28.1817 22.4811 29.0719 22.8574 30 22.8574C30.9281 22.8574 31.8183 22.4811 32.4746 21.8115C33.1309 21.1418 33.4999 20.2332 33.5 19.2861C33.5 18.339 33.1309 17.4305 32.4746 16.7607C31.8182 16.091 30.9283 15.7139 30 15.7139Z" fill="#F4F4F4"/>
</svg>
