<svg width="94" height="102" viewBox="0 0 94 102" fill="none" xmlns="http://www.w3.org/2000/svg">
<path d="M7 37.0544V28.0544H21C20 22.5544 18.1 11.3544 18.5 10.5544C18.9 9.75444 21 9.88778 22 10.0544C24 8.88778 28.8 6.25444 32 5.05444C35.2 3.85444 39.3333 3.55448 41 3.5545C42.1667 2.88783 45.4 1.4545 49 1.0545C52.6 0.654496 56.1667 2.5545 57.5 3.5545C58.8333 3.88783 62.2 4.7545 65 5.5545C67.8 6.3545 67.8333 8.8878 67.5 10.0544C68.3333 9.72111 70.2 9.25445 71 10.0544C71.8 10.8544 71 16.3878 70.5 19.0544H91.5V22.0544C91.5 23.6544 92.1667 24.3878 92.5 24.5544C92.5 46.8878 92.4 91.9544 92 93.5544C91.6 95.1544 90.5 96.5544 90 97.0544C88.3333 97.3878 83.7 98.0544 78.5 98.0544C73.3 98.0544 66 97.3878 63 97.0544C63.5 98.0544 60.8 100.154 46 100.554C27.5 101.054 27 97.5544 27 97.0544C24 99.0544 7 98.0544 4 98.0544C1.6 98.0544 1.33333 96.7211 1.5 96.0544C1.33333 82.3878 1 54.0544 1 50.0544C1 45.0544 5 43.0544 7 42.0544C8.6 41.2544 8.66667 38.7211 8.5 37.5544L7 37.0544Z" stroke="#949494" stroke-width="2" stroke-linecap="round" stroke-linejoin="round" stroke-dasharray="2 4"/>
</svg>
