<svg width="80" height="80" viewBox="0 0 81 81" fill="none" xmlns="http://www.w3.org/2000/svg">
<path fill-rule="evenodd" clip-rule="evenodd" d="M80.4688 0.860352V5.21488C79.65 5.0105 78.6343 5.11742 78.1159 5.57091C77.6518 5.95669 77.6518 6.01773 77.6518 8.69794C77.6518 12.109 77.7261 12.2308 79.7497 12.2308C80.0426 12.2308 80.2768 12.227 80.4688 12.2154V69.2863C80.2979 69.2557 80.0984 69.23 79.8611 69.2055C78.8029 69.104 78.5801 69.1243 78.1531 69.5101C77.6518 69.9162 77.6518 69.9366 77.6518 72.7386C77.6518 75.4999 77.6518 75.5609 78.1159 75.9467C78.6343 76.4002 79.6499 76.5069 80.4688 76.3025V80.8603H0.46875V76.3697C0.512568 76.3709 0.558036 76.3721 0.605271 76.373C1.64492 76.373 1.83066 76.3122 2.29479 75.7843C2.83318 75.2157 2.83312 75.1751 2.83312 72.7386C2.83312 70.4035 2.8146 70.2613 2.36903 69.7943C2.10911 69.4897 1.70063 69.2867 1.40359 69.2867C1.1874 69.2867 0.803428 69.2499 0.46875 69.2049V12.2301C0.535558 12.2306 0.605818 12.2308 0.679651 12.2308C1.9606 12.2308 2.09054 12.1902 2.44327 11.7029C2.796 11.2156 2.83312 10.8907 2.83312 8.73854C2.83312 6.34265 2.83315 6.30194 2.29479 5.73345C1.83065 5.20553 1.64493 5.14454 0.605271 5.14454C0.558036 5.14546 0.512568 5.14668 0.46875 5.14781V0.860352H80.4688ZM10.148 69.2867C7.92017 69.2867 7.84578 69.3883 7.84578 72.84C7.84578 75.5201 7.84585 75.5608 8.3285 75.9669C8.71838 76.3121 9.08972 76.3934 10.1665 76.3934C11.3361 76.3934 11.5775 76.3324 12.0045 75.8857C12.4872 75.3984 12.4872 75.3577 12.4872 72.7792C12.4872 70.3223 12.4686 70.1396 12.0601 69.7335C11.6888 69.3477 11.4104 69.2867 10.148 69.2867ZM20.3589 69.2867C19.0408 69.2867 18.8179 69.3476 18.4652 69.7537C18.0939 70.1801 18.0569 70.4441 18.0569 72.8806C18.0569 75.5202 18.0569 75.5608 18.5396 75.9669C18.948 76.312 19.3007 76.3934 20.4146 76.3934C21.6213 76.3934 21.8442 76.3324 22.2341 75.8857C22.6796 75.4187 22.6982 75.2968 22.6982 72.7792C22.6982 70.3224 22.6796 70.1395 22.2712 69.7335C21.8999 69.3477 21.6214 69.2867 20.3589 69.2867ZM30.2729 69.2867C29.1404 69.2867 28.7876 69.3679 28.3792 69.7131C27.8965 70.1192 27.8964 70.1598 27.8964 72.7588C27.8964 75.2969 27.9151 75.4187 28.3607 75.8857C28.7505 76.3324 28.9733 76.3934 30.18 76.3934C31.294 76.3934 31.6467 76.3121 32.0552 75.9669C32.5378 75.5608 32.5379 75.5202 32.5379 72.8604C32.5379 70.302 32.5192 70.1396 32.1108 69.7335C31.7395 69.3477 31.461 69.2867 30.2729 69.2867ZM40.1496 69.2867C38.7944 69.2867 38.6087 69.3476 38.2002 69.7943C37.7547 70.2613 37.7362 70.4035 37.7362 72.7994C37.7362 75.2562 37.7547 75.3375 38.2189 75.8655C38.6644 76.3324 38.8501 76.3934 40.094 76.3934C41.375 76.3934 41.5235 76.3527 42.0247 75.8045C42.5631 75.2157 42.5632 75.1954 42.5632 72.7386C42.5632 70.4035 42.5446 70.2613 42.099 69.7943C41.6906 69.3477 41.5048 69.2867 40.1496 69.2867ZM51.9944 69.6929C51.4004 69.1041 48.9497 69.104 48.2442 69.7131C47.7615 70.1192 47.7615 70.1598 47.7615 72.7182C47.7615 75.2563 47.7801 75.3375 48.2442 75.8655C48.6898 76.3324 48.8755 76.3934 50.1193 76.3934C51.4189 76.3934 51.5489 76.3528 52.0687 75.7843C52.4029 75.3985 52.5885 75.0532 52.5143 74.8502C52.4586 74.6674 52.4028 73.5304 52.4028 72.3324C52.4028 70.3224 52.3657 70.0786 51.9944 69.6929ZM60.2746 69.2867C58.8451 69.2867 58.6594 69.3273 58.2324 69.7943C57.7868 70.2816 57.7683 70.3832 57.8054 72.7588C57.8426 75.0328 57.8796 75.2563 58.288 75.8045C58.715 76.3527 58.8265 76.3934 60.1818 76.3934C61.5184 76.3934 61.6484 76.3527 62.1125 75.8249C62.5952 75.2766 62.6139 75.1953 62.6139 72.7994C62.6139 70.6269 62.5767 70.302 62.224 69.8147C61.8713 69.3274 61.7412 69.2867 60.2746 69.2867ZM71.9151 69.6725C71.2653 69.104 68.7962 69.1243 68.1092 69.7131C67.6265 70.1192 67.6265 70.1598 67.6265 72.7588C67.6265 75.3578 67.6265 75.3984 68.1092 75.8857C68.5548 76.3324 68.7776 76.3934 69.9844 76.3934C71.2653 76.3934 71.4139 76.3528 71.9337 75.7843L72.4907 75.1751L72.4163 72.6166C72.3606 70.2207 72.3421 70.038 71.9151 69.6725ZM2.4619 13.2461V67.6623H78.0231V13.2461H2.4619ZM10.1108 5.12431C9.1454 5.14462 8.75549 5.22581 8.36563 5.55068L7.84578 5.97705V8.75876C7.84578 12.2512 7.82727 12.2308 10.1294 12.2308C12.4129 12.2308 12.4872 12.1293 12.4872 8.75876V6.18004L11.9116 5.65225C11.4289 5.20555 11.169 5.12431 10.1108 5.12431ZM20.3774 5.12431C19.2079 5.12432 18.9666 5.18521 18.5396 5.63188C18.0569 6.11919 18.0569 6.15985 18.0569 8.77914C18.0569 12.1699 18.094 12.2308 20.3774 12.2308C22.661 12.2308 22.6982 12.17 22.6982 8.77914C22.6982 6.15985 22.6981 6.11919 22.2154 5.63188C21.7884 5.18519 21.5471 5.12431 20.3774 5.12431ZM30.31 5.12431C29.2147 5.12431 28.9547 5.20555 28.472 5.65225L27.8964 6.18004V8.75876C27.8964 11.1953 27.9151 11.3781 28.3235 11.7842C28.6948 12.17 28.9734 12.2308 30.3472 12.2308C32.5007 12.2308 32.5007 12.2511 32.5564 8.79936L32.6121 6.09884L32.1108 5.6115C31.6653 5.20547 31.3867 5.12432 30.31 5.12431ZM40.1867 5.12431C39.0543 5.12432 38.7944 5.18526 38.3117 5.65225L37.7362 6.18004V8.75876C37.7362 11.1953 37.7547 11.3781 38.1631 11.7842C38.5344 12.17 38.813 12.2308 40.1867 12.2308C41.7091 12.2308 41.8206 12.1902 42.1734 11.7029C42.526 11.2156 42.5632 10.8907 42.5632 8.73854C42.5632 6.32229 42.5631 6.30191 42.0247 5.71308C41.5235 5.16488 41.3749 5.12431 40.1867 5.12431ZM50.2121 5.12431C49.0796 5.12432 48.8198 5.18526 48.3371 5.65225L47.7615 6.18004V8.75876C47.7615 11.1953 47.78 11.3781 48.1884 11.7842C48.5597 12.17 48.8383 12.2308 50.2121 12.2308C51.7344 12.2308 51.8459 12.1902 52.1987 11.7029C52.5514 11.2156 52.5885 10.8907 52.5885 8.73854C52.5885 6.32229 52.5885 6.30191 52.0501 5.71308C51.5488 5.16488 51.4002 5.12431 50.2121 5.12431ZM60.256 5.12431C59.2164 5.12431 58.845 5.2055 58.4551 5.55068C57.9725 5.95675 57.9724 5.97711 57.9724 8.75876C57.9724 12.2511 57.9539 12.2308 60.2374 12.2308C61.6298 12.2308 61.8526 12.1902 62.2054 11.7639C62.5767 11.3375 62.6139 11.0735 62.6139 8.75876C62.6139 6.24103 62.6138 6.22069 62.094 5.67248C61.6299 5.18517 61.4256 5.12431 60.256 5.12431ZM70.0771 5.12431C68.9446 5.12431 68.6847 5.18525 68.202 5.65225L67.6265 6.18004V8.75876C67.6265 11.1953 67.6451 11.3781 68.0535 11.7842C68.4248 12.17 68.7033 12.2308 70.0771 12.2308C71.5995 12.2308 71.7109 12.1902 72.0636 11.7029C72.4163 11.2156 72.4534 10.8907 72.4534 8.73854C72.4534 6.3223 72.4535 6.30191 71.9151 5.71308C71.4138 5.16485 71.2653 5.12431 70.0771 5.12431Z" fill="black"/>
</svg>
