<svg width="60" height="60" viewBox="0 0 60 60" fill="none" xmlns="http://www.w3.org/2000/svg">
<path d="M12.5 13.9286C12.5 11.5606 13.4219 9.28955 15.0628 7.61512C16.7038 5.94069 18.9294 5 21.25 5H38.75C41.0706 5 43.2962 5.94069 44.9372 7.61512C46.5781 9.28955 47.5 11.5606 47.5 13.9286V46.0714C47.5 48.4394 46.5781 50.7104 44.9372 52.3849C43.2962 54.0593 41.0706 55 38.75 55H21.25C18.9294 55 16.7038 54.0593 15.0628 52.3849C13.4219 50.7104 12.5 48.4394 12.5 46.0714V13.9286ZM33.5 19.2857C33.5 18.3385 33.1313 17.4301 32.4749 16.7603C31.8185 16.0906 30.9283 15.7143 30 15.7143C29.0717 15.7143 28.1815 16.0906 27.5251 16.7603C26.8687 17.4301 26.5 18.3385 26.5 19.2857C26.5 20.2329 26.8687 21.1413 27.5251 21.8111C28.1815 22.4809 29.0717 22.8571 30 22.8571C30.9283 22.8571 31.8185 22.4809 32.4749 21.8111C33.1313 21.1413 33.5 20.2329 33.5 19.2857ZM24.75 37.1429C24.75 35.7221 25.3031 34.3594 26.2877 33.3548C27.2723 32.3501 28.6076 31.7857 30 31.7857C31.3924 31.7857 32.7277 32.3501 33.7123 33.3548C34.6969 34.3594 35.25 35.7221 35.25 37.1429C35.25 38.5637 34.6969 39.9263 33.7123 40.9309C32.7277 41.9356 31.3924 42.5 30 42.5C28.6076 42.5 27.2723 41.9356 26.2877 40.9309C25.3031 39.9263 24.75 38.5637 24.75 37.1429ZM30 28.2143C27.6794 28.2143 25.4538 29.155 23.8128 30.8294C22.1719 32.5038 21.25 34.7749 21.25 37.1429C21.25 39.5109 22.1719 41.7819 23.8128 43.4563C25.4538 45.1307 27.6794 46.0714 30 46.0714C32.3206 46.0714 34.5462 45.1307 36.1872 43.4563C37.8281 41.7819 38.75 39.5109 38.75 37.1429C38.75 34.7749 37.8281 32.5038 36.1872 30.8294C34.5462 29.155 32.3206 28.2143 30 28.2143Z" fill="#F4F4F4"/>
</svg>
